<?xml version="1.0" encoding="UTF-8"?><svg id="Arme" xmlns="http://www.w3.org/2000/svg" width="175.94" height="216.56" viewBox="0 0 175.94 216.56"><defs><style>.cls-1{fill:none;}.cls-1,.cls-2,.cls-3,.cls-4{stroke-width:0px;}.cls-2{fill:#2c2f2c;}.cls-3{fill:#bea888;}.cls-4{fill:#82502e;}</style></defs><path class="cls-1" d="m167.47,196.51c0-.36.04-.7.1-1.04l.17-3.38.22-7.99c-.31-.7-.49-1.47-.49-2.28,0-2.21,1.28-4.12,3.14-5.04l.8-2.94,4.53-1.7v-.16c-.85.49-1.81.77-2.85.77-3.11,0-5.62-2.52-5.62-5.62s2.52-5.62,5.62-5.62c.72,0,1.4.14,2.03.38l-.17-2.19-.18-.52c-.53.16-1.09.25-1.67.25-3.11,0-5.62-2.52-5.62-5.62,0-2.4,1.5-4.44,3.62-5.25l-.5-3.05c-1.85-.92-3.12-2.82-3.12-5.03,0-1.54.62-2.94,1.63-3.96l-.38-2.28-6.43-17.94c-.92.65-2.03,1.03-3.24,1.03-3.11,0-5.62-2.52-5.62-5.62,0-2.88,2.16-5.24,4.95-5.58l-.11-.29-.59-1.05c-2.44-.62-4.24-2.82-4.24-5.45,0-.58.09-1.14.25-1.67l-.51-.91-6.56-5.62c-.91.63-2.01,1-3.2,1-3.11,0-5.62-2.52-5.62-5.62,0-.21.01-.43.04-.63l-.5-.29-2.22-1.43c.33.72.52,1.52.52,2.36,0,3.11-2.52,5.62-5.62,5.62s-5.62-2.52-5.62-5.62,2.52-5.62,5.62-5.62c.02,0,.04,0,.05,0l-1.93-1.25-7.64-3.6c-.94.7-2.1,1.13-3.36,1.13-3.11,0-5.62-2.52-5.62-5.62,0-.23.02-.45.04-.67,0-.04,0-.07,0-.11,0-1.02.27-1.97.75-2.79l-.57-2.76.17-5.71c-.68-.93-1.08-2.07-1.08-3.31,0-1.81.86-3.42,2.19-4.45l.14-.54,1.13-3.68.5-.46c-2.07-.83-3.54-2.85-3.54-5.22,0-3.11,2.52-5.62,5.62-5.62.57,0,1.12.09,1.64.24l.16-1.57c-.57.19-1.17.3-1.81.3-3.11,0-5.62-2.52-5.62-5.62s2.52-5.62,5.62-5.62c1.88,0,3.54.93,4.56,2.35l2.2-6.08-1.13-2.26v-2.1c-.77,2.19-2.85,3.77-5.3,3.77-3.11,0-5.62-2.52-5.62-5.62,0-2.43,1.55-4.5,3.71-5.28l-.85-.8-2.26-.71-1.56-1.84-4.23-2.24c-.89.58-1.95.93-3.09.93-2.44,0-4.5-1.55-5.29-3.72l-2.54.51-2.06.88c-1.03,1.28-2.61,2.1-4.38,2.1-1.08,0-2.09-.31-2.94-.84l-4.76,2.24-3.84,3.91c1.68.97,2.81,2.78,2.81,4.87,0,3.11-2.52,5.62-5.62,5.62-1.62,0-3.08-.69-4.11-1.8l-.25.43-.1,6.14c1-.9,2.32-1.46,3.77-1.46,3.11,0,5.62,2.52,5.62,5.62s-2.52,5.62-5.62,5.62c-.04,0-.07,0-.11,0l.16,1.83c.22-.03.44-.04.66-.04,3.11,0,5.62,2.52,5.62,5.62,0,1.86-.91,3.51-2.31,4.53l.34.19.76,6.77c.32.71.51,1.5.51,2.33,0,.39-.04.78-.12,1.15l.72,6.46-1.36,3.15c.93,1,1.5,2.34,1.5,3.81,0,.23-.02.45-.04.67,0,.04,0,.07,0,.11,0,3.11-2.52,5.62-5.62,5.62-1.29,0-2.48-.44-3.43-1.17l-3.74,1.84-4.32,2.31c2.04.84,3.48,2.85,3.48,5.2,0,3.11-2.52,5.62-5.62,5.62s-5.62-2.52-5.62-5.62c0-.38.04-.75.11-1.11l-3.89,2.08c-.52,2.57-2.79,4.5-5.51,4.5-.81,0-1.58-.17-2.27-.48l-4.95,2.48-2.55,3.08c.75.95,1.2,2.15,1.2,3.46,0,3.11-2.52,5.62-5.62,5.62-.45,0-.88-.06-1.3-.16l-1.16,2.31c.65-.27,1.37-.41,2.11-.41,3.11,0,5.62,2.52,5.62,5.62s-2.52,5.62-5.62,5.62c-2.44,0-4.51-1.56-5.29-3.73l-3.78,9.42c.57.88.9,1.92.9,3.05,0,2.66-1.84,4.88-4.32,5.47l-1.59,3.96c.1,0,.19-.01.29-.01,3.11,0,5.62,2.52,5.62,5.62s-2.52,5.62-5.62,5.62c-1.51,0-2.88-.6-3.89-1.57l-6.5,18.29c1.22,1.03,2,2.57,2,4.3,0,3.11-2.52,5.62-5.62,5.62-.03,0-.05,0-.08,0l-1.78,3.77c.58-.2,1.2-.32,1.86-.32,3.11,0,5.62,2.52,5.62,5.62,0,.56-.08,1.09-.23,1.6l3.93.91c-.38-.76-.6-1.61-.6-2.51,0-3.11,2.52-5.62,5.62-5.62s5.62,2.52,5.62,5.62-2.52,5.62-5.62,5.62c-1.57,0-3-.65-4.02-1.69l-.39,6.88c1.02-1.07,2.46-1.74,4.06-1.74,3.11,0,5.62,2.52,5.62,5.62s-2.52,5.62-5.62,5.62c-1.33,0-2.56-.47-3.52-1.24l.32,3.47.2,1.41c.87-.55,1.9-.88,3.01-.88,3.11,0,5.62,2.52,5.62,5.62,0,2.89-2.18,5.26-4.98,5.58h12.82c-2.8-.32-4.98-2.7-4.98-5.58,0-3.11,2.52-5.62,5.62-5.62s5.62,2.52,5.62,5.62c0,2.89-2.18,5.26-4.98,5.58h83.71c-2.8-.32-4.98-2.7-4.98-5.58,0-3.11,2.52-5.62,5.62-5.62s5.62,2.52,5.62,5.62c0,2.89-2.18,5.26-4.98,5.58h12.72c-2.8-.32-4.98-2.7-4.98-5.58,0-3.11,2.52-5.62,5.62-5.62s5.62,2.52,5.62,5.62c0,2.89-2.18,5.26-4.98,5.58h13.4c-2.8-.32-4.98-2.7-4.98-5.58,0-3.11,2.52-5.62,5.62-5.62s5.62,2.52,5.62,5.62c0,2.89-2.18,5.26-4.98,5.58h12.72c-2.8-.32-4.98-2.7-4.98-5.58,0-3.11,2.52-5.62,5.62-5.62,1.13,0,2.18.34,3.06.91v-.59l4.53-1.98.33-6.68c-.01-.16-.03-.33-.03-.5Zm-149.7-23.3c-3.11,0-5.62-2.52-5.62-5.62s2.52-5.62,5.62-5.62,5.62,2.52,5.62,5.62-2.52,5.62-5.62,5.62Zm0-13.32c-3.11,0-5.62-2.52-5.62-5.62s2.52-5.62,5.62-5.62,5.62,2.52,5.62,5.62-2.52,5.62-5.62,5.62Zm13.8-11.25c3.11,0,5.62,2.52,5.62,5.62s-2.52,5.62-5.62,5.62-5.62-2.52-5.62-5.62,2.52-5.62,5.62-5.62Zm-5.62-7.7c0-3.11,2.52-5.62,5.62-5.62s5.62,2.52,5.62,5.62-2.52,5.62-5.62,5.62-5.62-2.52-5.62-5.62Zm0,26.65c0-3.11,2.52-5.62,5.62-5.62s5.62,2.52,5.62,5.62-2.52,5.62-5.62,5.62-5.62-2.52-5.62-5.62Zm5.96,35.34c-3.11,0-5.62-2.52-5.62-5.62s2.52-5.62,5.62-5.62,5.62,2.52,5.62,5.62-2.52,5.62-5.62,5.62Zm0-15.03c-3.11,0-5.62-2.52-5.62-5.62s2.52-5.62,5.62-5.62,5.62,2.52,5.62,5.62-2.52,5.62-5.62,5.62Zm0-56.03c-3.11,0-5.62-2.52-5.62-5.62s2.52-5.62,5.62-5.62,5.62,2.52,5.62,5.62-2.52,5.62-5.62,5.62Zm28.77,28.02c-3.11,0-5.62-2.52-5.62-5.62s2.52-5.62,5.62-5.62,5.62,2.52,5.62,5.62-2.52,5.62-5.62,5.62Zm5.62,7.7c0,3.11-2.52,5.62-5.62,5.62s-5.62-2.52-5.62-5.62,2.52-5.62,5.62-5.62,5.62,2.52,5.62,5.62Zm-5.62-21.03c-3.11,0-5.62-2.52-5.62-5.62s2.52-5.62,5.62-5.62,5.62,2.52,5.62,5.62-2.52,5.62-5.62,5.62Zm-.04-54.12c3.11,0,5.62,2.52,5.62,5.62s-2.52,5.62-5.62,5.62-5.62-2.52-5.62-5.62,2.52-5.62,5.62-5.62Zm0,13.49c3.11,0,5.62,2.52,5.62,5.62s-2.52,5.62-5.62,5.62-5.62-2.52-5.62-5.62,2.52-5.62,5.62-5.62Zm0,14.69c3.11,0,5.62,2.52,5.62,5.62s-2.52,5.62-5.62,5.62-5.62-2.52-5.62-5.62,2.52-5.62,5.62-5.62Zm-14.65-28.19c3.11,0,5.62,2.52,5.62,5.62s-2.52,5.62-5.62,5.62-5.62-2.52-5.62-5.62,2.52-5.62,5.62-5.62Zm0,13.49c3.11,0,5.62,2.52,5.62,5.62s-2.52,5.62-5.62,5.62-5.62-2.52-5.62-5.62,2.52-5.62,5.62-5.62Zm0,53.95c-3.11,0-5.62-2.52-5.62-5.62s2.52-5.62,5.62-5.62,5.62,2.52,5.62,5.62-2.52,5.62-5.62,5.62Zm5.62,7.7c0,3.11-2.52,5.62-5.62,5.62s-5.62-2.52-5.62-5.62,2.52-5.62,5.62-5.62,5.62,2.52,5.62,5.62Zm-5.62-21.03c-3.11,0-5.62-2.52-5.62-5.62s2.52-5.62,5.62-5.62,5.62,2.52,5.62,5.62-2.52,5.62-5.62,5.62Zm-.04-25.94c3.11,0,5.62,2.52,5.62,5.62s-2.52,5.62-5.62,5.62-5.62-2.52-5.62-5.62,2.52-5.62,5.62-5.62Zm.04,95.37c-3.11,0-5.62-2.52-5.62-5.62s2.52-5.62,5.62-5.62,5.62,2.52,5.62,5.62-2.52,5.62-5.62,5.62Zm0-13.56c-3.11,0-5.62-2.52-5.62-5.62s2.52-5.62,5.62-5.62,5.62,2.52,5.62,5.62-2.52,5.62-5.62,5.62Zm.34-14.53c-3.11,0-5.62-2.52-5.62-5.62s2.52-5.62,5.62-5.62,5.62,2.52,5.62,5.62-2.52,5.62-5.62,5.62Zm13.81,28.09c-3.11,0-5.62-2.52-5.62-5.62s2.52-5.62,5.62-5.62,5.62,2.52,5.62,5.62-2.52,5.62-5.62,5.62Zm.37-13.56c-3.11,0-5.62-2.52-5.62-5.62s2.52-5.62,5.62-5.62,5.62,2.52,5.62,5.62-2.52,5.62-5.62,5.62Zm.51-14.53c-3.11,0-5.62-2.52-5.62-5.62s2.52-5.62,5.62-5.62,5.62,2.52,5.62,5.62-2.52,5.62-5.62,5.62Zm19.29-46.96c0,3.11-2.52,5.62-5.62,5.62s-5.62-2.52-5.62-5.62,2.52-5.62,5.62-5.62,5.62,2.52,5.62,5.62Zm-5.62,18.95c-3.11,0-5.62-2.52-5.62-5.62s2.52-5.62,5.62-5.62,5.62,2.52,5.62,5.62-2.52,5.62-5.62,5.62Zm5.62,7.7c0,3.11-2.52,5.62-5.62,5.62s-5.62-2.52-5.62-5.62,2.52-5.62,5.62-5.62,5.62,2.52,5.62,5.62Zm-11.28-41.34c0-3.11,2.52-5.62,5.62-5.62s5.62,2.52,5.62,5.62-2.52,5.62-5.62,5.62-5.62-2.52-5.62-5.62Zm5.62-22.56c-3.11,0-5.62-2.52-5.62-5.62s2.52-5.62,5.62-5.62,5.62,2.52,5.62,5.62-2.52,5.62-5.62,5.62Zm-.7-24.74c3.11,0,5.62,2.52,5.62,5.62s-2.52,5.62-5.62,5.62-5.62-2.52-5.62-5.62,2.52-5.62,5.62-5.62Zm-.25,26.99c3.11,0,5.62,2.52,5.62,5.62s-2.52,5.62-5.62,5.62-5.62-2.52-5.62-5.62,2.52-5.62,5.62-5.62Zm.25,110.06c-3.11,0-5.62-2.52-5.62-5.62s2.52-5.62,5.62-5.62,5.62,2.52,5.62,5.62-2.52,5.62-5.62,5.62Zm0-13.56c-3.11,0-5.62-2.52-5.62-5.62s2.52-5.62,5.62-5.62,5.62,2.52,5.62,5.62-2.52,5.62-5.62,5.62Zm1.08-14.53c-3.11,0-5.62-2.52-5.62-5.62s2.52-5.62,5.62-5.62,5.62,2.52,5.62,5.62-2.52,5.62-5.62,5.62ZM88.61,8.38c3.11,0,5.62,2.52,5.62,5.62s-2.52,5.62-5.62,5.62-5.62-2.52-5.62-5.62,2.52-5.62,5.62-5.62Zm0,15.34c3.11,0,5.62,2.52,5.62,5.62s-2.52,5.62-5.62,5.62-5.62-2.52-5.62-5.62,2.52-5.62,5.62-5.62Zm-.43,122.84c-3.11,0-5.62-2.52-5.62-5.62s2.52-5.62,5.62-5.62,5.62,2.52,5.62,5.62-2.52,5.62-5.62,5.62Zm5.62,7.7c0,3.11-2.52,5.62-5.62,5.62s-5.62-2.52-5.62-5.62,2.52-5.62,5.62-5.62,5.62,2.52,5.62,5.62Zm-5.66-22.39c-3.11,0-5.62-2.52-5.62-5.62s2.52-5.62,5.62-5.62,5.62,2.52,5.62,5.62-2.52,5.62-5.62,5.62Zm.04,30.09c3.11,0,5.62,2.52,5.62,5.62s-2.52,5.62-5.62,5.62-5.62-2.52-5.62-5.62,2.52-5.62,5.62-5.62Zm.43,54.03c-3.11,0-5.62-2.52-5.62-5.62s2.52-5.62,5.62-5.62,5.62,2.52,5.62,5.62-2.52,5.62-5.62,5.62Zm0-13.06c-3.11,0-5.62-2.52-5.62-5.62s2.52-5.62,5.62-5.62,5.62,2.52,5.62,5.62-2.52,5.62-5.62,5.62Zm0-14.4c-3.11,0-5.62-2.52-5.62-5.62s2.52-5.62,5.62-5.62,5.62,2.52,5.62,5.62-2.52,5.62-5.62,5.62Zm0-70.74c-3.11,0-5.62-2.52-5.62-5.62s2.52-5.62,5.62-5.62,5.62,2.52,5.62,5.62-2.52,5.62-5.62,5.62Zm0-13.6c-3.11,0-5.62-2.52-5.62-5.62s2.52-5.62,5.62-5.62,5.62,2.52,5.62,5.62-2.52,5.62-5.62,5.62Zm0-13.21c-3.11,0-5.62-2.52-5.62-5.62s2.52-5.62,5.62-5.62,5.62,2.52,5.62,5.62-2.52,5.62-5.62,5.62Zm0-14.58c-3.11,0-5.62-2.52-5.62-5.62s2.52-5.62,5.62-5.62,5.62,2.52,5.62,5.62-2.52,5.62-5.62,5.62Zm0-14.58c-3.11,0-5.62-2.52-5.62-5.62s2.52-5.62,5.62-5.62,5.62,2.52,5.62,5.62-2.52,5.62-5.62,5.62Zm.08-14.09c-3.11,0-5.62-2.52-5.62-5.62s2.52-5.62,5.62-5.62,5.62,2.52,5.62,5.62-2.52,5.62-5.62,5.62Zm28.15,57.24c-3.11,0-5.62-2.52-5.62-5.62s2.52-5.62,5.62-5.62,5.62,2.52,5.62,5.62-2.52,5.62-5.62,5.62Zm5.62,7.21c0,3.11-2.52,5.62-5.62,5.62s-5.62-2.52-5.62-5.62,2.52-5.62,5.62-5.62,5.62,2.52,5.62,5.62Zm-19.59,47.72c-3.11,0-5.62-2.52-5.62-5.62s2.52-5.62,5.62-5.62,5.62,2.52,5.62,5.62-2.52,5.62-5.62,5.62Zm5.62,7.7c0,3.11-2.52,5.62-5.62,5.62s-5.62-2.52-5.62-5.62,2.52-5.62,5.62-5.62,5.62,2.52,5.62,5.62Zm-11.28-41.34c0-3.11,2.52-5.62,5.62-5.62s5.62,2.52,5.62,5.62-2.52,5.62-5.62,5.62-5.62-2.52-5.62-5.62Zm5.66,20.31c-3.11,0-5.62-2.52-5.62-5.62s2.52-5.62,5.62-5.62,5.62,2.52,5.62,5.62-2.52,5.62-5.62,5.62Zm0-84.75c-3.11,0-5.62-2.52-5.62-5.62s2.52-5.62,5.62-5.62,5.62,2.52,5.62,5.62-2.52,5.62-5.62,5.62Zm-.04-53.43c3.11,0,5.62,2.52,5.62,5.62s-2.52,5.62-5.62,5.62-5.62-2.52-5.62-5.62,2.52-5.62,5.62-5.62Zm5.66,21.2c0,3.11-2.52,5.62-5.62,5.62s-5.62-2.52-5.62-5.62,2.52-5.62,5.62-5.62,5.62,2.52,5.62,5.62Zm-5.77,6.4c3.11,0,5.62,2.52,5.62,5.62s-2.52,5.62-5.62,5.62-5.62-2.52-5.62-5.62,2.52-5.62,5.62-5.62Zm-.47,29.17c3.11,0,5.62,2.52,5.62,5.62s-2.52,5.62-5.62,5.62-5.62-2.52-5.62-5.62,2.52-5.62,5.62-5.62Zm6.09,34.19c0,3.11-2.52,5.62-5.62,5.62s-5.62-2.52-5.62-5.62,2.52-5.62,5.62-5.62,5.62,2.52,5.62,5.62Zm-6.09-18.45c3.11,0,5.62,2.52,5.62,5.62s-2.52,5.62-5.62,5.62-5.62-2.52-5.62-5.62,2.52-5.62,5.62-5.62Zm-.09,25.66c3.11,0,5.62,2.52,5.62,5.62s-2.52,5.62-5.62,5.62-5.62-2.52-5.62-5.62,2.52-5.62,5.62-5.62Zm.09,109.45c-3.11,0-5.62-2.52-5.62-5.62s2.52-5.62,5.62-5.62,5.62,2.52,5.62,5.62-2.52,5.62-5.62,5.62Zm0-13.06c-3.11,0-5.62-2.52-5.62-5.62s2.52-5.62,5.62-5.62,5.62,2.52,5.62,5.62-2.52,5.62-5.62,5.62Zm1.04-14.4c-3.11,0-5.62-2.52-5.62-5.62s2.52-5.62,5.62-5.62,5.62,2.52,5.62,5.62-2.52,5.62-5.62,5.62Zm12.36-107.65c3.11,0,5.62,2.52,5.62,5.62s-2.52,5.62-5.62,5.62-5.62-2.52-5.62-5.62,2.52-5.62,5.62-5.62Zm-4.44,45.37c0-3.11,2.52-5.62,5.62-5.62s5.62,2.52,5.62,5.62-2.52,5.62-5.62,5.62-5.62-2.52-5.62-5.62Zm5.66,76.68c-3.11,0-5.62-2.52-5.62-5.62s2.52-5.62,5.62-5.62,5.62,2.52,5.62,5.62-2.52,5.62-5.62,5.62Zm0-15.03c-3.11,0-5.62-2.52-5.62-5.62s2.52-5.62,5.62-5.62,5.62,2.52,5.62,5.62-2.52,5.62-5.62,5.62Zm0-14.69c-3.11,0-5.62-2.52-5.62-5.62s2.52-5.62,5.62-5.62,5.62,2.52,5.62,5.62-2.52,5.62-5.62,5.62Zm0-13.32c-3.11,0-5.62-2.52-5.62-5.62s2.52-5.62,5.62-5.62,5.62,2.52,5.62,5.62-2.52,5.62-5.62,5.62Zm0-13.32c-3.11,0-5.62-2.52-5.62-5.62s2.52-5.62,5.62-5.62,5.62,2.52,5.62,5.62-2.52,5.62-5.62,5.62Zm14.01,56.03c-3.11,0-5.62-2.52-5.62-5.62s2.52-5.62,5.62-5.62,5.62,2.52,5.62,5.62-2.52,5.62-5.62,5.62Zm0-14.69c-3.11,0-5.62-2.52-5.62-5.62s2.52-5.62,5.62-5.62,5.62,2.52,5.62,5.62-2.52,5.62-5.62,5.62Zm0-14.69c-3.11,0-5.62-2.52-5.62-5.62s2.52-5.62,5.62-5.62,5.62,2.52,5.62,5.62-2.52,5.62-5.62,5.62Zm0-13.32c-3.11,0-5.62-2.52-5.62-5.62s2.52-5.62,5.62-5.62,5.62,2.52,5.62,5.62-2.52,5.62-5.62,5.62Zm0-13.32c-3.11,0-5.62-2.52-5.62-5.62s2.52-5.62,5.62-5.62,5.62,2.52,5.62,5.62-2.52,5.62-5.62,5.62Zm0-14.69c-3.11,0-5.62-2.52-5.62-5.62s2.52-5.62,5.62-5.62,5.62,2.52,5.62,5.62-2.52,5.62-5.62,5.62Zm0-14.08c-3.11,0-5.62-2.52-5.62-5.62s2.52-5.62,5.62-5.62,5.62,2.52,5.62,5.62-2.52,5.62-5.62,5.62Zm0-12.83c-3.11,0-5.62-2.52-5.62-5.62s2.52-5.62,5.62-5.62,5.62,2.52,5.62,5.62-2.52,5.62-5.62,5.62Zm8.42-5.62c0-3.11,2.52-5.62,5.62-5.62s5.62,2.52,5.62,5.62-2.52,5.62-5.62,5.62-5.62-2.52-5.62-5.62Zm6.27,103.26c-3.11,0-5.62-2.52-5.62-5.62s2.52-5.62,5.62-5.62,5.62,2.52,5.62,5.62-2.52,5.62-5.62,5.62Zm0-14.69c-3.11,0-5.62-2.52-5.62-5.62s2.52-5.62,5.62-5.62,5.62,2.52,5.62,5.62-2.52,5.62-5.62,5.62Zm0-14.69c-3.11,0-5.62-2.52-5.62-5.62s2.52-5.62,5.62-5.62,5.62,2.52,5.62,5.62-2.52,5.62-5.62,5.62Zm0-13.32c-3.11,0-5.62-2.52-5.62-5.62s2.52-5.62,5.62-5.62,5.62,2.52,5.62,5.62-2.52,5.62-5.62,5.62Zm0-13.32c-3.11,0-5.62-2.52-5.62-5.62s2.52-5.62,5.62-5.62,5.62,2.52,5.62,5.62-2.52,5.62-5.62,5.62Zm0-15.03c-3.11,0-5.62-2.52-5.62-5.62s2.52-5.62,5.62-5.62,5.62,2.52,5.62,5.62-2.52,5.62-5.62,5.62Zm0-13.74c-3.11,0-5.62-2.52-5.62-5.62s2.52-5.62,5.62-5.62,5.62,2.52,5.62,5.62-2.52,5.62-5.62,5.62Zm7.85,8c0-3.11,2.52-5.62,5.62-5.62s5.62,2.52,5.62,5.62-2.52,5.62-5.62,5.62-5.62-2.52-5.62-5.62Zm6.16,76.81c-3.11,0-5.62-2.52-5.62-5.62s2.52-5.62,5.62-5.62,5.62,2.52,5.62,5.62-2.52,5.62-5.62,5.62Zm0-14.69c-3.11,0-5.62-2.52-5.62-5.62s2.52-5.62,5.62-5.62,5.62,2.52,5.62,5.62-2.52,5.62-5.62,5.62Zm0-14.69c-3.11,0-5.62-2.52-5.62-5.62s2.52-5.62,5.62-5.62,5.62,2.52,5.62,5.62-2.52,5.62-5.62,5.62Zm0-13.32c-3.11,0-5.62-2.52-5.62-5.62s2.52-5.62,5.62-5.62,5.62,2.52,5.62,5.62-2.52,5.62-5.62,5.62Zm0-13.32c-3.11,0-5.62-2.52-5.62-5.62s2.52-5.62,5.62-5.62,5.62,2.52,5.62,5.62-2.52,5.62-5.62,5.62Z"/><circle class="cls-4" cx="102.26" cy="70.78" r="5.62"/><circle class="cls-4" cx="88.61" cy="70.78" r="5.62"/><path class="cls-4" d="m80.28,70.66c.03-.22.04-.44.04-.67,0-1.47-.57-2.81-1.5-3.81l-2.91,6.74-3.99,1.96c.82.47,1.77.74,2.78.74,2.88,0,5.25-2.17,5.58-4.96Z"/><path class="cls-4" d="m79.07,53.1l.39,3.48c.08-.37.12-.76.12-1.15,0-.83-.19-1.62-.51-2.33Z"/><circle class="cls-4" cx="88.61" cy="56.19" r="5.62"/><circle class="cls-4" cx="102.88" cy="56.19" r="5.62"/><path class="cls-4" d="m111.55,70.87c.06,3.05,2.55,5.51,5.62,5.51.96,0,1.86-.24,2.65-.67l-1.59-.75-5.52-4.95-.42-2.05c-.47.82-.75,1.77-.75,2.79,0,.04,0,.07,0,.11Z"/><path class="cls-4" d="m110.81,56.19c0,1.24.41,2.38,1.08,3.31l.12-3.91.99-3.85c-1.33,1.03-2.19,2.64-2.19,4.45Z"/><path class="cls-4" d="m102.73,47.23c3.11,0,5.62-2.52,5.62-5.62s-2.52-5.62-5.62-5.62-5.62,2.52-5.62,5.62,2.52,5.62,5.62,5.62Z"/><circle class="cls-4" cx="88.69" cy="42.1" r="5.62"/><path class="cls-4" d="m80.28,41.61c0-3.11-2.52-5.62-5.62-5.62-.22,0-.44.02-.66.04l.7,8.3,3.27,1.82c1.4-1.02,2.31-2.67,2.31-4.53Z"/><path class="cls-4" d="m111.23,41.85c0,2.37,1.47,4.39,3.54,5.22l2.9-2.66.83-7.94c-.52-.16-1.07-.24-1.64-.24-3.11,0-5.62,2.52-5.62,5.62Z"/><circle class="cls-4" cx="102.88" cy="29.58" r="5.62"/><path class="cls-4" d="m116.85,23.96c-3.11,0-5.62,2.52-5.62,5.62s2.52,5.62,5.62,5.62c.63,0,1.24-.11,1.81-.3l.14-1.38,2.61-7.22c-1.02-1.42-2.68-2.35-4.56-2.35Z"/><circle class="cls-4" cx="88.61" cy="29.35" r="5.62"/><path class="cls-4" d="m79.58,28.57c0-3.11-2.52-5.62-5.62-5.62-1.45,0-2.77.55-3.77,1.46l-.03,1.74,3.34,4.01.34,4.03s.07,0,.11,0c3.11,0,5.62-2.52,5.62-5.62Z"/><path class="cls-2" d="m74.66,19.63c3.11,0,5.62-2.52,5.62-5.62,0-2.08-1.13-3.89-2.81-4.87l-4.5,4.58-2.42,4.11c1.03,1.1,2.49,1.8,4.11,1.8Z"/><circle class="cls-2" cx="88.61" cy="14.01" r="5.62"/><circle class="cls-2" cx="102.84" cy="14.01" r="5.62"/><path class="cls-2" d="m111.55,14.01c0,3.11,2.52,5.62,5.62,5.62,2.46,0,4.54-1.58,5.3-3.77v-.3l-7.21-6.83c-2.16.78-3.71,2.85-3.71,5.28Z"/><path class="cls-2" d="m103.28,4.06c1.14,0,2.2-.34,3.09-.93l-2.71-1.44L99.7,0l-1.71.34c.78,2.17,2.85,3.72,5.29,3.72Z"/><path class="cls-2" d="m93.4,1.73l-2.89,1.24h-4.39l-.05.02c.86.53,1.86.84,2.94.84,1.77,0,3.35-.82,4.38-2.1Z"/><path class="cls-4" d="m130.89,176.66c-3.11,0-5.62,2.52-5.62,5.62s2.52,5.62,5.62,5.62,5.62-2.52,5.62-5.62-2.52-5.62-5.62-5.62Z"/><circle class="cls-4" cx="145.58" cy="182.28" r="5.62"/><circle class="cls-4" cx="159.59" cy="182.28" r="5.62"/><path class="cls-4" d="m46,204.75c-3.11,0-5.62,2.52-5.62,5.62s2.52,5.62,5.62,5.62,5.62-2.52,5.62-5.62-2.52-5.62-5.62-5.62Z"/><path class="cls-4" d="m46,191.19c-3.11,0-5.62,2.52-5.62,5.62s2.52,5.62,5.62,5.62,5.62-2.52,5.62-5.62-2.52-5.62-5.62-5.62Z"/><circle class="cls-4" cx="46.34" cy="182.28" r="5.62"/><circle class="cls-4" cx="31.91" cy="182.28" r="5.62"/><path class="cls-4" d="m18.12,187.91c3.11,0,5.62-2.52,5.62-5.62s-2.52-5.62-5.62-5.62-5.62,2.52-5.62,5.62c0,.9.22,1.76.6,2.51l1.08.25-.07,1.17c1.02,1.04,2.44,1.69,4.02,1.69Z"/><circle class="cls-4" cx="31.91" cy="197.31" r="5.62"/><path class="cls-4" d="m23.4,196.98c0-3.11-2.52-5.62-5.62-5.62-1.6,0-3.04.67-4.06,1.74l-.08,1.44.62,6.82c.96.78,2.19,1.24,3.52,1.24,3.11,0,5.62-2.52,5.62-5.62Z"/><path class="cls-4" d="m23.4,210.98c0-3.11-2.52-5.62-5.62-5.62-1.11,0-2.14.32-3.01.88l1.27,9.01.45,1.2c.21.05.43.09.64.11h1.29c2.8-.32,4.98-2.7,4.98-5.58Z"/><path class="cls-4" d="m37.51,210.98c0-3.11-2.52-5.62-5.62-5.62s-5.62,2.52-5.62,5.62c0,2.89,2.18,5.26,4.98,5.58h1.29c2.8-.32,4.98-2.7,4.98-5.58Z"/><path class="cls-4" d="m130.89,191.35c-3.11,0-5.62,2.52-5.62,5.62s2.52,5.62,5.62,5.62,5.62-2.52,5.62-5.62-2.52-5.62-5.62-5.62Z"/><circle class="cls-4" cx="145.58" cy="196.98" r="5.62"/><circle class="cls-4" cx="159.59" cy="196.98" r="5.62"/><path class="cls-4" d="m153.97,210.98c0,2.89,2.18,5.26,4.98,5.58h1.29c.78-.09,1.5-.34,2.15-.71l.26-.61v-8.99c-.88-.57-1.93-.91-3.06-.91-3.11,0-5.62,2.52-5.62,5.62Z"/><path class="cls-4" d="m151.21,210.98c0-3.11-2.52-5.62-5.62-5.62s-5.62,2.52-5.62,5.62c0,2.89,2.18,5.26,4.98,5.58h1.29c2.8-.32,4.98-2.7,4.98-5.58Z"/><path class="cls-4" d="m136.51,210.98c0-3.11-2.52-5.62-5.62-5.62s-5.62,2.52-5.62,5.62c0,2.89,2.18,5.26,4.98,5.58h1.29c2.8-.32,4.98-2.7,4.98-5.58Z"/><path class="cls-3" d="m16.53,216.56h.6c-.22-.03-.43-.07-.64-.11l.04.11Z"/><path class="cls-3" d="m122.51,210.98c0-3.11-2.52-5.62-5.62-5.62s-5.62,2.52-5.62,5.62c0,2.89,2.18,5.26,4.98,5.58h1.29c2.8-.32,4.98-2.7,4.98-5.58Z"/><circle class="cls-3" cx="116.88" cy="197.31" r="5.62"/><circle class="cls-3" cx="116.88" cy="182.28" r="5.62"/><path class="cls-3" d="m159.59,161.97c-3.11,0-5.62,2.52-5.62,5.62s2.52,5.62,5.62,5.62,5.62-2.52,5.62-5.62-2.52-5.62-5.62-5.62Z"/><circle class="cls-3" cx="159.59" cy="154.27" r="5.62"/><circle class="cls-3" cx="159.59" cy="140.94" r="5.62"/><path class="cls-3" d="m130.89,161.97c-3.11,0-5.62,2.52-5.62,5.62s2.52,5.62,5.62,5.62,5.62-2.52,5.62-5.62-2.52-5.62-5.62-5.62Z"/><path class="cls-3" d="m130.89,148.64c-3.11,0-5.62,2.52-5.62,5.62s2.52,5.62,5.62,5.62,5.62-2.52,5.62-5.62-2.52-5.62-5.62-5.62Z"/><path class="cls-3" d="m130.89,135.32c-3.11,0-5.62,2.52-5.62,5.62s2.52,5.62,5.62,5.62,5.62-2.52,5.62-5.62-2.52-5.62-5.62-5.62Z"/><path class="cls-3" d="m130.89,120.63c-3.11,0-5.62,2.52-5.62,5.62s2.52,5.62,5.62,5.62,5.62-2.52,5.62-5.62-2.52-5.62-5.62-5.62Z"/><path class="cls-3" d="m145.58,120.29c-3.11,0-5.62,2.52-5.62,5.62s2.52,5.62,5.62,5.62,5.62-2.52,5.62-5.62-2.52-5.62-5.62-5.62Z"/><path class="cls-3" d="m145.58,106.55c-3.11,0-5.62,2.52-5.62,5.62s2.52,5.62,5.62,5.62,5.62-2.52,5.62-5.62-2.52-5.62-5.62-5.62Z"/><circle class="cls-3" cx="145.58" cy="154.27" r="5.62"/><circle class="cls-3" cx="145.58" cy="140.94" r="5.62"/><path class="cls-3" d="m145.58,161.97c-3.11,0-5.62,2.52-5.62,5.62s2.52,5.62,5.62,5.62,5.62-2.52,5.62-5.62-2.52-5.62-5.62-5.62Z"/><path class="cls-3" d="m116.88,161.97c-3.11,0-5.62,2.52-5.62,5.62s2.52,5.62,5.62,5.62,5.62-2.52,5.62-5.62-2.52-5.62-5.62-5.62Z"/><circle class="cls-3" cx="116.88" cy="154.27" r="5.62"/><circle class="cls-3" cx="116.88" cy="140.94" r="5.62"/><path class="cls-3" d="m88.18,173.22c3.11,0,5.62-2.52,5.62-5.62s-2.52-5.62-5.62-5.62-5.62,2.52-5.62,5.62,2.52,5.62,5.62,5.62Z"/><circle class="cls-3" cx="88.18" cy="154.27" r="5.62"/><circle class="cls-3" cx="88.18" cy="140.94" r="5.62"/><circle class="cls-3" cx="102.88" cy="154.27" r="5.62"/><circle class="cls-3" cx="102.88" cy="140.94" r="5.62"/><path class="cls-3" d="m102.88,161.97c-3.11,0-5.62,2.52-5.62,5.62s2.52,5.62,5.62,5.62,5.62-2.52,5.62-5.62-2.52-5.62-5.62-5.62Z"/><circle class="cls-3" cx="88.61" cy="210.37" r="5.62"/><circle class="cls-3" cx="88.61" cy="197.31" r="5.62"/><path class="cls-3" d="m88.61,177.29c-3.11,0-5.62,2.52-5.62,5.62s2.52,5.62,5.62,5.62,5.62-2.52,5.62-5.62-2.52-5.62-5.62-5.62Z"/><circle class="cls-3" cx="102.26" cy="197.31" r="5.62"/><path class="cls-3" d="m103.31,177.29c-3.11,0-5.62,2.52-5.62,5.62s2.52,5.62,5.62,5.62,5.62-2.52,5.62-5.62-2.52-5.62-5.62-5.62Z"/><circle class="cls-3" cx="102.26" cy="210.37" r="5.62"/><path class="cls-3" d="m74.69,161.97c-3.11,0-5.62,2.52-5.62,5.62s2.52,5.62,5.62,5.62,5.62-2.52,5.62-5.62-2.52-5.62-5.62-5.62Z"/><circle class="cls-3" cx="74.69" cy="154.27" r="5.62"/><circle class="cls-3" cx="74.69" cy="140.94" r="5.62"/><path class="cls-3" d="m46,161.97c-3.11,0-5.62,2.52-5.62,5.62s2.52,5.62,5.62,5.62,5.62-2.52,5.62-5.62-2.52-5.62-5.62-5.62Z"/><path class="cls-3" d="m46,148.64c-3.11,0-5.62,2.52-5.62,5.62s2.52,5.62,5.62,5.62,5.62-2.52,5.62-5.62-2.52-5.62-5.62-5.62Z"/><path class="cls-3" d="m46,135.32c-3.11,0-5.62,2.52-5.62,5.62s2.52,5.62,5.62,5.62,5.62-2.52,5.62-5.62-2.52-5.62-5.62-5.62Z"/><circle class="cls-3" cx="60.69" cy="154.27" r="5.62"/><circle class="cls-3" cx="60.69" cy="140.94" r="5.62"/><circle class="cls-3" cx="116.85" cy="126.25" r="5.62"/><path class="cls-3" d="m88.15,120.63c-3.11,0-5.62,2.52-5.62,5.62s2.52,5.62,5.62,5.62,5.62-2.52,5.62-5.62-2.52-5.62-5.62-5.62Z"/><circle class="cls-3" cx="102.84" cy="126.25" r="5.62"/><circle class="cls-3" cx="74.66" cy="126.25" r="5.62"/><circle class="cls-3" cx="45.96" cy="126.25" r="5.62"/><path class="cls-3" d="m60.65,131.87c3.11,0,5.62-2.52,5.62-5.62s-2.52-5.62-5.62-5.62-5.62,2.52-5.62,5.62,2.52,5.62,5.62,5.62Z"/><path class="cls-3" d="m130.89,106.55c-3.11,0-5.62,2.52-5.62,5.62s2.52,5.62,5.62,5.62,5.62-2.52,5.62-5.62-2.52-5.62-5.62-5.62Z"/><path class="cls-3" d="m102.17,117.79c3.11,0,5.62-2.52,5.62-5.62s-2.52-5.62-5.62-5.62-5.62,2.52-5.62,5.62,2.52,5.62,5.62,5.62Z"/><path class="cls-3" d="m116.85,106.55c-3.11,0-5.62,2.52-5.62,5.62s2.52,5.62,5.62,5.62,5.62-2.52,5.62-5.62-2.52-5.62-5.62-5.62Z"/><path class="cls-3" d="m167.47,181.82c0,.81.18,1.58.49,2.28l.06-2.2,2.55-4.95.05-.18c-1.86.92-3.14,2.83-3.14,5.04Z"/><path class="cls-3" d="m167.47,167.13c0,3.11,2.52,5.62,5.62,5.62,1.03,0,2-.28,2.83-.77l-.8-10.09c-.63-.24-1.31-.38-2.03-.38-3.11,0-5.62,2.52-5.62,5.62Z"/><path class="cls-3" d="m167.47,153.81c0,3.11,2.52,5.62,5.62,5.62.58,0,1.14-.09,1.67-.25l-3.64-10.37-.04-.25c-2.11.81-3.62,2.85-3.62,5.25Z"/><path class="cls-3" d="m170.59,145.51l-1.48-8.99c-1.01,1.02-1.63,2.41-1.63,3.96,0,2.2,1.27,4.11,3.12,5.03Z"/><circle class="cls-3" cx="159.05" cy="125.79" r="5.62"/><path class="cls-3" d="m153.43,111.71c0,3.11,2.52,5.62,5.62,5.62,1.21,0,2.33-.39,3.24-1.03l-.92-2.57-3-7.6c-2.79.33-4.95,2.7-4.95,5.58Z"/><path class="cls-3" d="m88.61,106.55c-3.11,0-5.62,2.52-5.62,5.62s2.52,5.62,5.62,5.62,5.62-2.52,5.62-5.62-2.52-5.62-5.62-5.62Z"/><path class="cls-3" d="m60.65,117.18c3.11,0,5.62-2.52,5.62-5.62s-2.52-5.62-5.62-5.62-5.62,2.52-5.62,5.62,2.52,5.62,5.62,5.62Z"/><path class="cls-3" d="m46,117.18c3.11,0,5.62-2.52,5.62-5.62s-2.52-5.62-5.62-5.62-5.62,2.52-5.62,5.62,2.52,5.62,5.62,5.62Z"/><path class="cls-3" d="m31.57,117.18c3.11,0,5.62-2.52,5.62-5.62s-2.52-5.62-5.62-5.62c-.75,0-1.46.15-2.11.41l-1.66,3.32-1.52,3.78c.78,2.18,2.85,3.73,5.29,3.73Z"/><path class="cls-3" d="m37.54,98.57c0-1.31-.45-2.5-1.2-3.46l-3.2,3.87-2.53,5.06c.42.1.85.16,1.3.16,3.11,0,5.62-2.52,5.62-5.62Z"/><path class="cls-3" d="m46,103.69c3.11,0,5.62-2.52,5.62-5.62s-2.52-5.62-5.62-5.62-5.62,2.52-5.62,5.62,2.52,5.62,5.62,5.62Z"/><path class="cls-3" d="m60.65,103.69c3.11,0,5.62-2.52,5.62-5.62s-2.52-5.62-5.62-5.62-5.62,2.52-5.62,5.62,2.52,5.62,5.62,5.62Z"/><circle class="cls-3" cx="74.66" cy="98.07" r="5.62"/><circle class="cls-3" cx="88.61" cy="98.57" r="5.62"/><path class="cls-3" d="m102.73,93.72c-3.11,0-5.62,2.52-5.62,5.62s2.52,5.62,5.62,5.62,5.62-2.52,5.62-5.62-2.52-5.62-5.62-5.62Z"/><circle class="cls-3" cx="116.85" cy="99.34" r="5.62"/><path class="cls-3" d="m130.89,93.72c-3.11,0-5.62,2.52-5.62,5.62s2.52,5.62,5.62,5.62,5.62-2.52,5.62-5.62-2.52-5.62-5.62-5.62Z"/><circle class="cls-3" cx="144.94" cy="99.34" r="5.62"/><path class="cls-3" d="m157.67,104.78l-3.99-7.12c-.16.53-.25,1.09-.25,1.67,0,2.63,1.81,4.83,4.24,5.45Z"/><path class="cls-3" d="m73.7,117.18c3.11,0,5.62-2.52,5.62-5.62s-2.52-5.62-5.62-5.62-5.62,2.52-5.62,5.62,2.52,5.62,5.62,5.62Z"/><path class="cls-3" d="m60.69,161.97c-3.11,0-5.62,2.52-5.62,5.62s2.52,5.62,5.62,5.62,5.62-2.52,5.62-5.62-2.52-5.62-5.62-5.62Z"/><path class="cls-3" d="m73.96,204.75c-3.11,0-5.62,2.52-5.62,5.62s2.52,5.62,5.62,5.62,5.62-2.52,5.62-5.62-2.52-5.62-5.62-5.62Z"/><path class="cls-3" d="m73.96,191.19c-3.11,0-5.62,2.52-5.62,5.62s2.52,5.62,5.62,5.62,5.62-2.52,5.62-5.62-2.52-5.62-5.62-5.62Z"/><path class="cls-3" d="m75.04,176.66c-3.11,0-5.62,2.52-5.62,5.62s2.52,5.62,5.62,5.62,5.62-2.52,5.62-5.62-2.52-5.62-5.62-5.62Z"/><path class="cls-3" d="m31.57,173.22c3.11,0,5.62-2.52,5.62-5.62s-2.52-5.62-5.62-5.62-5.62,2.52-5.62,5.62,2.52,5.62,5.62,5.62Z"/><circle class="cls-3" cx="31.57" cy="154.27" r="5.62"/><circle class="cls-3" cx="31.57" cy="140.94" r="5.62"/><circle class="cls-3" cx="31.91" cy="126.25" r="5.62"/><path class="cls-3" d="m17.77,161.97c-3.11,0-5.62,2.52-5.62,5.62s2.52,5.62,5.62,5.62,5.62-2.52,5.62-5.62-2.52-5.62-5.62-5.62Z"/><path class="cls-3" d="m9.39,167.59c0-1.73-.78-3.27-2-4.3l-2.98,8.39-.72,1.53s.05,0,.08,0c3.11,0,5.62-2.52,5.62-5.62Z"/><path class="cls-3" d="m3.77,176.66c-.65,0-1.27.12-1.86.32l-1.91,4.06,6.68,2.27,2.48.57c.15-.51.23-1.04.23-1.6,0-3.11-2.52-5.62-5.62-5.62Z"/><path class="cls-3" d="m17.77,148.64c-3.11,0-5.62,2.52-5.62,5.62s2.52,5.62,5.62,5.62,5.62-2.52,5.62-5.62-2.52-5.62-5.62-5.62Z"/><path class="cls-3" d="m23.4,140.94c0-3.11-2.52-5.62-5.62-5.62-.1,0-.19,0-.29.01l-1.45,3.61-2.15,6.06c1.01.97,2.38,1.57,3.89,1.57,3.11,0,5.62-2.52,5.62-5.62Z"/><path class="cls-3" d="m23.4,125.91c0-1.12-.33-2.17-.9-3.05l-3.42,8.51c2.48-.59,4.32-2.81,4.32-5.47Z"/><path class="cls-3" d="m60.52,191.19c-3.11,0-5.62,2.52-5.62,5.62s2.52,5.62,5.62,5.62,5.62-2.52,5.62-5.62-2.52-5.62-5.62-5.62Z"/><circle class="cls-3" cx="61.03" cy="182.28" r="5.62"/><circle class="cls-3" cx="60.15" cy="210.37" r="5.62"/><path class="cls-3" d="m61.03,90.19c3.11,0,5.62-2.52,5.62-5.62,0-2.35-1.44-4.36-3.48-5.2l-7.65,4.09c-.07.36-.11.73-.11,1.11,0,3.11,2.52,5.62,5.62,5.62Z"/><path class="cls-3" d="m73.96,90.19c3.11,0,5.62-2.52,5.62-5.62s-2.52-5.62-5.62-5.62-5.62,2.52-5.62,5.62,2.52,5.62,5.62,5.62Z"/><path class="cls-3" d="m102.26,92.13c3.11,0,5.62-2.52,5.62-5.62s-2.52-5.62-5.62-5.62-5.62,2.52-5.62,5.62,2.52,5.62,5.62,5.62Z"/><path class="cls-3" d="m115.66,92.13c3.11,0,5.62-2.52,5.62-5.62s-2.52-5.62-5.62-5.62-5.62,2.52-5.62,5.62,2.52,5.62,5.62,5.62Z"/><path class="cls-3" d="m124.39,86.51c0,3.11,2.52,5.62,5.62,5.62s5.62-2.52,5.62-5.62c0-.84-.19-1.64-.52-2.36l-5.04-3.26s-.04,0-.05,0c-3.11,0-5.62,2.52-5.62,5.62Z"/><path class="cls-3" d="m143.41,92.13c1.19,0,2.29-.37,3.2-1l-.37-.32-8.41-4.94c-.02.21-.04.42-.04.63,0,3.11,2.52,5.62,5.62,5.62Z"/><path class="cls-3" d="m51.62,85.54l-3.65,1.95-4.13,2.07c.7.31,1.46.48,2.27.48,2.72,0,4.99-1.93,5.51-4.5Z"/><path class="cls-3" d="m88.61,79.74c-3.11,0-5.62,2.52-5.62,5.62s2.52,5.62,5.62,5.62,5.62-2.52,5.62-5.62-2.52-5.62-5.62-5.62Z"/></svg>