<?xml version="1.0" encoding="UTF-8"?><svg id="Layer_1" xmlns="http://www.w3.org/2000/svg" width="301.57" height="301.06" viewBox="0 0 301.57 301.06"><defs><style>.cls-1{fill:#525251;stroke-width:0px;}</style></defs><circle class="cls-1" cx="18.18" cy="18.18" r="18.18"/><circle class="cls-1" cx="18.18" cy="62.3" r="18.18"/><circle class="cls-1" cx="62.81" cy="62.3" r="18.18"/><circle class="cls-1" cx="62.81" cy="106.41" r="18.18"/><circle class="cls-1" cx="62.81" cy="150.53" r="18.18"/><circle class="cls-1" cx="62.81" cy="194.64" r="18.18"/><circle class="cls-1" cx="106.92" cy="62.3" r="18.18"/><circle class="cls-1" cx="106.92" cy="106.41" r="18.18"/><circle class="cls-1" cx="107.44" cy="150.53" r="18.18"/><circle class="cls-1" cx="107.44" cy="194.64" r="18.18"/><circle class="cls-1" cx="151.04" cy="62.3" r="18.18"/><circle class="cls-1" cx="151.04" cy="106.41" r="18.18"/><circle class="cls-1" cx="152.06" cy="150.53" r="18.18"/><circle class="cls-1" cx="195.16" cy="62.3" r="18.18"/><circle class="cls-1" cx="239.27" cy="62.3" r="18.18"/><circle class="cls-1" cx="62.81" cy="238.76" r="18.18"/><circle class="cls-1" cx="195.16" cy="106.41" r="18.18"/><circle class="cls-1" cx="18.18" cy="106.41" r="18.18"/><circle class="cls-1" cx="18.18" cy="150.53" r="18.18"/><circle class="cls-1" cx="18.18" cy="194.64" r="18.18"/><circle class="cls-1" cx="18.18" cy="238.76" r="18.18"/><circle class="cls-1" cx="62.81" cy="18.18" r="18.18"/><circle class="cls-1" cx="106.92" cy="18.18" r="18.18"/><circle class="cls-1" cx="151.04" cy="18.18" r="18.18"/><circle class="cls-1" cx="195.16" cy="18.18" r="18.18"/><circle class="cls-1" cx="239.27" cy="18.18" r="18.18"/><circle class="cls-1" cx="283.39" cy="18.18" r="18.18"/><circle class="cls-1" cx="18.18" cy="282.88" r="18.18"/></svg>