<?xml version="1.0" encoding="UTF-8"?><svg id="Layer_1" xmlns="http://www.w3.org/2000/svg" width="543.2" height="402.23" viewBox="0 0 543.2 402.23"><defs><style>.cls-1{fill:#5f6062;}.cls-1,.cls-2,.cls-3,.cls-4,.cls-5{stroke-width:0px;}.cls-2{fill:#525251;}.cls-3{fill:#353535;}.cls-4{fill:#3e3e3e;}.cls-5{fill:#242525;}</style></defs><path class="cls-4" d="m1.1,99.11l123.55,92.25v210.86H24.98s-21.42-.82-23.89-32.12S1.1,99.11,1.1,99.11Z"/><path class="cls-2" d="m123.71,38.8v159.43L1.69,102.93S-2.56,39.82,9.25,26.51,37.37-1.62,57.22.14s31.64,9.04,42.19,18.08,24.3,17.08,24.3,17.08v3.5Z"/><path class="cls-5" d="m542.1,99.11l-123.55,92.25v210.86h99.66s21.42-.82,23.89-32.12c2.47-31.3,0-270.99,0-270.99Z"/><path class="cls-3" d="m419.49,38.8v159.43l122.02-95.3s4.24-63.1-7.56-76.41c-11.8-13.31-28.13-28.13-47.97-26.37-19.84,1.76-31.64,9.04-42.19,18.08-10.55,9.04-24.3,17.08-24.3,17.08v3.5Z"/><polygon class="cls-1" points="123.71 36.01 123.71 197.15 271.25 309.72 419.49 197.15 419.49 36.01 271.6 148.58 123.71 36.01"/></svg>