<?xml version="1.0" encoding="UTF-8"?><svg id="Layer_1" xmlns="http://www.w3.org/2000/svg" width="645.04" height="470.87" viewBox="0 0 645.04 470.87"><defs><style>.cls-1{fill:#5f6062;}.cls-1,.cls-2,.cls-3,.cls-4,.cls-5,.cls-6{stroke-width:0px;}.cls-2{fill:#525251;}.cls-3{fill:#353535;}.cls-4{fill:#3e3e3e;}.cls-5{fill:#242525;}.cls-6{fill:#fff;}</style></defs><rect class="cls-6" width="645.04" height="470.87" rx="12" ry="12"/><path class="cls-4" d="m55.01,122.65l123.55,92.25v210.86h-99.66s-21.42-.82-23.89-32.12,0-270.99,0-270.99Z"/><path class="cls-2" d="m177.61,62.34v159.43L55.59,126.47s-4.24-63.1,7.56-76.41,28.13-28.13,47.97-26.37,31.64,9.04,42.19,18.08,24.3,17.08,24.3,17.08v3.5Z"/><path class="cls-5" d="m596.01,122.65l-123.55,92.25v210.86h99.66s21.42-.82,23.89-32.12c2.47-31.3,0-270.99,0-270.99Z"/><path class="cls-3" d="m473.4,62.34v159.43l122.02-95.3s4.24-63.1-7.56-76.41c-11.8-13.31-28.13-28.13-47.97-26.37-19.84,1.76-31.64,9.04-42.19,18.08-10.55,9.04-24.3,17.08-24.3,17.08v3.5Z"/><polygon class="cls-1" points="177.61 59.55 177.61 220.68 325.15 333.26 473.4 220.68 473.4 59.55 325.51 172.12 177.61 59.55"/></svg>