<?xml version="1.0" encoding="UTF-8"?><svg id="Layer_1" xmlns="http://www.w3.org/2000/svg" width="398.61" height="398.61" xmlns:xlink="http://www.w3.org/1999/xlink" viewBox="0 0 398.61 398.61"><defs><style>.cls-1{fill:url(#linear-gradient);}.cls-1,.cls-2{stroke-width:0px;}.cls-2{fill:#fff;}</style><linearGradient id="linear-gradient" x1="75.9" y1="413.06" x2="322.72" y2="-14.45" gradientUnits="userSpaceOnUse"><stop offset=".08" stop-color="#8c8c8c"/><stop offset=".36" stop-color="#9c9da1"/><stop offset=".58" stop-color="#7d8180"/><stop offset=".91" stop-color="#868686"/></linearGradient></defs><rect class="cls-1" width="398.61" height="398.61" rx="69.35" ry="69.35"/><path class="cls-2" d="m277.63,67.11H120.98c-27.36,0-49.76,22.39-49.76,49.76v156.65c0,27.36,22.39,49.76,49.76,49.76h156.65c27.37,0,49.76-22.39,49.76-49.76V116.86c0-27.36-22.39-49.76-49.76-49.76Zm32.13,188.77c0,27.37-22.39,49.76-49.76,49.76h-121.38c-27.37,0-49.76-22.39-49.76-49.76v-121.38c0-27.37,22.39-49.76,49.76-49.76h121.38c27.36,0,49.76,22.39,49.76,49.76v121.38Z"/><path class="cls-2" d="m199.3,136.73c-34.55,0-62.57,28.01-62.57,62.57s28.02,62.57,62.57,62.57,62.57-28.02,62.57-62.57-28.02-62.57-62.57-62.57Zm0,106.38c-24.19,0-43.81-19.62-43.81-43.81s19.62-43.81,43.81-43.81,43.81,19.62,43.81,43.81-19.62,43.81-43.81,43.81Z"/><circle class="cls-2" cx="271.02" cy="119.55" r="14.4"/></svg>