<?xml version="1.0" encoding="UTF-8"?><svg id="Layer_1" xmlns="http://www.w3.org/2000/svg" width="508.87" height="508.87" xmlns:xlink="http://www.w3.org/1999/xlink" viewBox="0 0 508.87 508.87"><defs><style>.cls-1{fill:url(#linear-gradient);}.cls-1,.cls-2{stroke-width:0px;}.cls-2{fill:#fff;}</style><linearGradient id="linear-gradient" x1="131.03" y1="468.19" x2="377.85" y2="40.68" gradientUnits="userSpaceOnUse"><stop offset=".08" stop-color="#3e3e3e"/><stop offset=".36" stop-color="#5f6062"/><stop offset=".58" stop-color="#242525"/><stop offset=".91" stop-color="#353535"/></linearGradient></defs><rect class="cls-2" width="508.87" height="508.87" rx="69.35" ry="69.35"/><rect class="cls-1" x="55.13" y="55.13" width="398.61" height="398.61" rx="69.35" ry="69.35"/><path class="cls-2" d="m332.76,122.24h-156.65c-27.36,0-49.76,22.39-49.76,49.76v156.65c0,27.36,22.39,49.76,49.76,49.76h156.65c27.37,0,49.76-22.39,49.76-49.76v-156.65c0-27.36-22.39-49.76-49.76-49.76Zm32.13,188.77c0,27.37-22.39,49.76-49.76,49.76h-121.38c-27.37,0-49.76-22.39-49.76-49.76v-121.38c0-27.37,22.39-49.76,49.76-49.76h121.38c27.36,0,49.76,22.39,49.76,49.76v121.38Z"/><path class="cls-2" d="m254.43,191.86c-34.55,0-62.57,28.01-62.57,62.57s28.02,62.57,62.57,62.57,62.57-28.02,62.57-62.57-28.02-62.57-62.57-62.57Zm0,106.38c-24.19,0-43.81-19.62-43.81-43.81s19.62-43.81,43.81-43.81,43.81,19.62,43.81,43.81-19.62,43.81-43.81,43.81Z"/><circle class="cls-2" cx="326.15" cy="174.68" r="14.4"/></svg>