<?xml version="1.0" encoding="UTF-8"?><svg id="Layer_1" xmlns="http://www.w3.org/2000/svg" width="508.87" height="508.87" viewBox="0 0 508.87 508.87"><defs><style>.cls-1{fill:#525351;}.cls-1,.cls-2,.cls-3,.cls-4{stroke-width:0px;}.cls-2{fill:#353535;}.cls-3{fill:#3e3e3e;}.cls-4{fill:#fff;}</style></defs><rect class="cls-4" width="508.87" height="508.87" rx="69.35" ry="69.35"/><circle class="cls-1" cx="145.45" cy="100.75" r="44.04"/><rect class="cls-3" x="107.73" y="177.79" width="75.43" height="241.37"/><path class="cls-2" d="m276.18,206.93v-31.96h-71.6v241.64l71.6,2.56,3.2-140s0-24.29,12.79-32.6,33.81-15.44,45.91-7.85,23.25,16.84,24.19,38.66c.95,21.82,0,139.95,0,139.95h75.43v-164.38s-.24-16.6-5.93-29.41c-5.69-12.81-9.72-23.72-16.13-29.17s-13.52-15.07-25.85-19.39-28.46-7.17-37.24-7.17-29.89,2.13-40.56,8.54-26.3,16.36-35.8,30.6Z"/></svg>