<?xml version="1.0" encoding="UTF-8"?><svg id="Layer_1" xmlns="http://www.w3.org/2000/svg" width="336.28" height="362.44" viewBox="0 0 336.28 362.44"><defs><style>.cls-1{fill:#525351;}.cls-1,.cls-2,.cls-3{stroke-width:0px;}.cls-2{fill:#353535;}.cls-3{fill:#3e3e3e;}</style></defs><circle class="cls-1" cx="44.04" cy="44.04" r="44.04"/><rect class="cls-3" x="6.32" y="121.07" width="75.43" height="241.37"/><path class="cls-2" d="m174.77,150.21v-31.96h-71.6v241.64l71.6,2.56,3.2-140s0-24.29,12.79-32.6,33.81-15.44,45.91-7.85,23.25,16.84,24.19,38.66c.95,21.82,0,139.95,0,139.95h75.43v-164.38s-.24-16.6-5.93-29.41c-5.69-12.81-9.72-23.72-16.13-29.17s-13.52-15.07-25.85-19.39-28.46-7.17-37.24-7.17-29.89,2.13-40.56,8.54-26.3,16.36-35.8,30.6Z"/></svg>