<?xml version="1.0" encoding="UTF-8"?><svg id="Layer_1" xmlns="http://www.w3.org/2000/svg" width="128.38" height="440.66" viewBox="0 0 128.38 440.66"><defs><style>.cls-1{fill:#fff;stroke-width:0px;}</style></defs><circle class="cls-1" cx="18.18" cy="62.23" r="18.18"/><circle class="cls-1" cx="18.18" cy="107.26" r="18.18"/><circle class="cls-1" cx="18.18" cy="152.29" r="18.18"/><circle class="cls-1" cx="18.18" cy="197.32" r="18.18"/><circle class="cls-1" cx="18.18" cy="242.35" r="18.18"/><circle class="cls-1" cx="18.18" cy="287.38" r="18.18"/><circle class="cls-1" cx="18.18" cy="332.42" r="18.18"/><circle class="cls-1" cx="18.18" cy="377.45" r="18.18"/><circle class="cls-1" cx="64.19" cy="107.26" r="18.18"/><circle class="cls-1" cx="64.19" cy="152.29" r="18.18"/><circle class="cls-1" cx="64.19" cy="197.32" r="18.18"/><circle class="cls-1" cx="64.19" cy="242.35" r="18.18"/><circle class="cls-1" cx="64.19" cy="287.38" r="18.18"/><circle class="cls-1" cx="64.19" cy="332.42" r="18.18"/><circle class="cls-1" cx="64.19" cy="377.45" r="18.18"/><circle class="cls-1" cx="64.19" cy="422.48" r="18.18"/><circle class="cls-1" cx="110.2" cy="18.18" r="18.18"/><circle class="cls-1" cx="110.2" cy="63.21" r="18.18"/><circle class="cls-1" cx="110.2" cy="108.24" r="18.18"/><circle class="cls-1" cx="110.2" cy="153.27" r="18.18"/><circle class="cls-1" cx="110.2" cy="198.3" r="18.18"/><circle class="cls-1" cx="110.2" cy="243.33" r="18.18"/><circle class="cls-1" cx="110.2" cy="288.36" r="18.18"/><circle class="cls-1" cx="110.2" cy="333.39" r="18.18"/></svg>